<svg width="232" height="765" viewBox="0 0 232 765" fill="none" xmlns="http://www.w3.org/2000/svg">
<path d="M204.167 322.086C210.917 322.086 216.813 324.617 221.854 329.669C226.906 334.726 229.437 340.622 229.438 347.356V635.461C229.437 672.529 217.219 703.279 192.792 727.711C168.36 752.138 137.615 764.356 100.562 764.356H27.2705C20.5311 764.356 14.635 761.825 9.58301 756.773C4.52582 751.716 2.00003 745.82 2 739.086V688.544C2.00005 681.804 4.52581 675.908 9.58301 670.856C14.635 665.799 20.5311 663.274 27.2705 663.273H76.542C111.083 663.273 128.354 646.002 128.354 611.461V574.815C128.354 568.076 125.823 562.18 120.771 557.128C115.713 552.071 109.817 549.544 103.083 549.544H27.2705C20.5311 549.544 14.635 547.018 9.58301 541.961C4.52581 536.909 2.00003 531.013 2 524.273V347.356C2.00005 340.622 4.52581 334.726 9.58301 329.669C14.635 324.617 20.5311 322.086 27.2705 322.086H204.167ZM204.188 0.369141C210.922 0.369141 216.818 2.90104 221.875 7.95312C226.927 13.0104 229.458 18.9063 229.458 25.6406V202.558C229.458 209.297 226.927 215.193 221.875 220.245C216.818 225.302 210.922 227.828 204.188 227.828H27.2705C20.5311 227.828 14.635 225.302 9.58301 220.245C4.52584 215.193 2.00012 209.297 2 202.558V25.6406C2 18.9064 4.52588 13.0104 9.58301 7.95312C14.635 2.90112 20.5311 0.369222 27.2705 0.369141H204.188Z" fill="#24E41E"/>
</svg>
