<svg xmlns="http://www.w3.org/2000/svg" xmlns:xlink="http://www.w3.org/1999/xlink" width="1080" zoomAndPan="magnify" viewBox="0 0 810 1012.49997" height="1350" preserveAspectRatio="xMidYMid meet" version="1.0"><defs><g/><clipPath id="dae3651756"><path d="M 0.199219 0 L 809.800781 0 L 809.800781 1012 L 0.199219 1012 Z M 0.199219 0 " clip-rule="nonzero"/></clipPath><clipPath id="28d6503e31"><rect x="0" width="246" y="0" height="798"/></clipPath><clipPath id="02093a71af"><rect x="0" width="332" y="0" height="557"/></clipPath></defs><g clip-path="url(#dae3651756)"><path fill="#ffffff" d="M 0.199219 0 L 809.800781 0 L 809.800781 1012 L 0.199219 1012 Z M 0.199219 0 " fill-opacity="1" fill-rule="nonzero"/><path fill="#ffffff" d="M 0.199219 0 L 809.800781 0 L 809.800781 1012 L 0.199219 1012 Z M 0.199219 0 " fill-opacity="1" fill-rule="nonzero"/></g><g transform="matrix(1, 0, 0, 1, 269, 0)"><g clip-path="url(#28d6503e31)"><g fill="#24e41e" fill-opacity="1"><g transform="translate(0.293571, 601.15806)"><g><path d="M 66.34375 161.109375 C 61.289062 161.109375 56.867188 159.210938 53.078125 155.421875 C 49.285156 151.628906 47.390625 147.207031 47.390625 142.15625 L 47.390625 104.25 C 47.390625 99.195312 49.285156 94.773438 53.078125 90.984375 C 56.867188 87.191406 61.289062 85.296875 66.34375 85.296875 L 103.296875 85.296875 C 129.203125 85.296875 142.15625 72.34375 142.15625 46.4375 L 142.15625 18.953125 C 142.15625 13.898438 140.257812 9.476562 136.46875 5.6875 C 132.675781 1.894531 128.253906 0 123.203125 0 L 66.34375 0 C 61.289062 0 56.867188 -1.894531 53.078125 -5.6875 C 49.285156 -9.476562 47.390625 -13.898438 47.390625 -18.953125 L 47.390625 -151.640625 C 47.390625 -156.691406 49.285156 -161.113281 53.078125 -164.90625 C 56.867188 -168.695312 61.289062 -170.59375 66.34375 -170.59375 L 199.015625 -170.59375 C 204.078125 -170.59375 208.5 -168.695312 212.28125 -164.90625 C 216.070312 -161.113281 217.96875 -156.691406 217.96875 -151.640625 L 217.96875 64.4375 C 217.96875 92.238281 208.804688 115.300781 190.484375 133.625 C 172.160156 151.945312 149.101562 161.109375 121.3125 161.109375 Z M 66.34375 161.109375 "/></g></g></g></g></g><g transform="matrix(1, 0, 0, 1, 243, 0)"><g clip-path="url(#02093a71af)"><g fill="#24e41e" fill-opacity="1"><g transform="translate(0.857842, 359.870989)"><g><path d="M 94.765625 0 C 89.710938 0 85.289062 -1.894531 81.5 -5.6875 C 77.707031 -9.476562 75.8125 -13.898438 75.8125 -18.953125 L 75.8125 -151.640625 C 75.8125 -156.691406 77.707031 -161.113281 81.5 -164.90625 C 85.289062 -168.695312 89.710938 -170.59375 94.765625 -170.59375 L 227.453125 -170.59375 C 232.503906 -170.59375 236.925781 -168.695312 240.71875 -164.90625 C 244.507812 -161.113281 246.40625 -156.691406 246.40625 -151.640625 L 246.40625 -18.953125 C 246.40625 -13.898438 244.507812 -9.476562 240.71875 -5.6875 C 236.925781 -1.894531 232.503906 0 227.453125 0 Z M 94.765625 0 "/></g></g></g></g></g></svg>