<svg width="138" height="454" viewBox="0 0 138 454" fill="none" xmlns="http://www.w3.org/2000/svg">
<g clip-path="url(#clip0_56_2)">
<path d="M122.667 190.812C126.762 190.812 130.339 192.318 133.398 195.324C136.464 198.334 138 201.842 138 205.85L138 377.296C138 399.354 130.586 417.653 115.765 432.192C100.94 446.729 82.2854 454 59.8037 454L15.333 454C11.2439 454 7.66684 452.494 4.60155 449.487C1.53303 446.478 3.35784e-05 442.969 -9.59382e-06 438.962L-8.93646e-06 408.885C0.000100055 404.874 1.5331 401.366 4.60155 398.359C7.66681 395.35 11.244 393.847 15.333 393.847L45.2285 393.847C66.187 393.847 76.667 383.569 76.667 363.014L76.667 341.207C76.667 337.197 75.1307 333.688 72.0654 330.682C68.9969 327.672 65.4192 326.169 61.333 326.169L15.333 326.169C11.2438 326.169 7.66688 324.665 4.60156 321.655C1.53305 318.649 -6.88761e-06 315.14 -6.79996e-06 311.13L-4.49899e-06 205.85C6.34121e-05 201.842 1.53306 198.334 4.60156 195.324C7.66683 192.318 11.2439 190.812 15.333 190.812L122.667 190.812ZM122.668 2.68099e-06C126.754 2.77029e-06 130.331 1.53746 133.399 4.60645C136.465 7.67859 138 11.2607 138 15.3516L138 122.822C138 126.916 136.464 130.498 133.399 133.567C130.331 136.64 126.754 138.174 122.668 138.174L15.332 138.174C11.2431 138.174 7.6657 136.64 4.60058 133.567C1.53235 130.498 -2.77384e-06 126.916 -2.68437e-06 122.822L-3.35519e-07 15.3516C-2.46109e-07 11.2607 1.53232 7.67859 4.60059 4.60645C7.66571 1.53746 11.2431 2.45726e-07 15.332 3.35092e-07L122.668 2.68099e-06Z" fill="#24E41E"/>
</g>
<defs>
<clipPath id="clip0_56_2">
<rect width="138" height="454" fill="white"/>
</clipPath>
</defs>
</svg>
